<svg width="1035" height="951" viewBox="0 0 1035 951" fill="none" xmlns="http://www.w3.org/2000/svg">
<mask id="mask0_2001_138" style="mask-type:luminance" maskUnits="userSpaceOnUse" x="-13" y="-35" width="1048" height="861">
<path d="M-13 -35H1035V825.228H-13V-35Z" fill="white"/>
</mask>
<g mask="url(#mask0_2001_138)">
<mask id="mask1_2001_138" style="mask-type:luminance" maskUnits="userSpaceOnUse" x="-13" y="-35" width="1048" height="861">
<path d="M857.997 -34.6966C844.334 -34.5621 830.676 -33.1733 817.204 -30.576C763.319 -20.1857 712.4 8.83208 668.351 48.4703C624.299 88.1086 586.875 138.159 554.695 192.44C511.948 264.541 477.31 345.506 423.158 404.83C382.616 449.244 332.102 479.673 278.774 491.879C225.446 504.086 169.455 498.046 118.638 474.671C67.8204 451.3 22.3154 410.666 -11.5852 358.469C-12.0666 357.729 -12.5229 356.961 -13 356.213V825.236H1035V55.9014C1018.28 33.0537 998.236 13.7655 976.178 -0.614891C940.021 -24.1892 898.986 -35.099 857.997 -34.6966Z" fill="white"/>
</mask>
<g mask="url(#mask1_2001_138)">
<mask id="mask2_2001_138" style="mask-type:luminance" maskUnits="userSpaceOnUse" x="-13" y="-35" width="1048" height="861">
<path d="M857.997 -34.6938C844.334 -34.5592 830.676 -33.1704 817.204 -30.5732C763.319 -20.1829 712.4 8.83495 668.351 48.4732C624.299 88.1114 586.875 138.161 554.695 192.443C511.948 264.544 477.31 345.509 423.158 404.832C382.616 449.247 332.102 479.676 278.774 491.882C225.446 504.089 169.455 498.049 118.638 474.674C67.8204 451.303 22.3154 410.669 -11.5852 358.472C-12.0666 357.732 -12.5229 356.964 -13 356.216V825.239H1035V55.9043C1018.28 33.0566 998.236 13.7684 976.178 -0.612022C940.021 -24.1864 898.986 -35.0961 857.997 -34.6938Z" fill="white"/>
</mask>
<g mask="url(#mask2_2001_138)">
<path d="M-13 -35.0972V825.238H1035V-35.0972H-13Z" fill="url(#paint0_linear_2001_138)"/>
</g>
</g>
</g>
<mask id="mask3_2001_138" style="mask-type:luminance" maskUnits="userSpaceOnUse" x="-13" y="546" width="1048" height="405">
<path d="M-13 546.228H1035V950.058H-13V546.228Z" fill="white"/>
</mask>
<g mask="url(#mask3_2001_138)">
<mask id="mask4_2001_138" style="mask-type:luminance" maskUnits="userSpaceOnUse" x="-13" y="546" width="1048" height="405">
<path d="M221.985 546.376C212.257 546.258 202.527 546.781 192.852 548.025C138.562 555.011 89.9049 583.721 42.2012 610.564C24.2488 620.666 5.864 630.675 -13 639.294V950.057H1035V690.309C986.192 725.139 931.544 751.622 873.49 766.37C785.187 788.804 689.188 783.377 605.988 746.256C534.73 714.465 475.472 661.48 410.872 617.712C378.572 595.83 344.549 576.056 307.85 562.82C280.325 552.89 251.168 546.733 221.985 546.376Z" fill="white"/>
</mask>
<g mask="url(#mask4_2001_138)">
<mask id="mask5_2001_138" style="mask-type:luminance" maskUnits="userSpaceOnUse" x="-13" y="546" width="1048" height="405">
<path d="M221.985 546.375C212.257 546.257 202.527 546.78 192.852 548.023C138.562 555.01 89.9049 583.72 42.2012 610.563C24.2488 620.665 5.864 630.673 -13 639.292V950.056H1035V690.308C986.192 725.137 931.544 751.62 873.49 766.368C785.187 788.802 689.188 783.376 605.988 746.255C534.73 714.463 475.472 661.478 410.872 617.711C378.572 595.828 344.549 576.054 307.85 562.819C280.325 552.889 251.168 546.732 221.985 546.375Z" fill="white"/>
</mask>
<g mask="url(#mask5_2001_138)">
<path d="M-13 546.259V950.058H1035V546.259H-13Z" fill="url(#paint1_linear_2001_138)"/>
</g>
</g>
</g>
<defs>
<linearGradient id="paint0_linear_2001_138" x1="511" y1="-35.0972" x2="511" y2="825.238" gradientUnits="userSpaceOnUse">
<stop offset="0.345" stop-color="#218A3D"/>
<stop offset="1" stop-color="#B1B1B1"/>
</linearGradient>
<linearGradient id="paint1_linear_2001_138" x1="511" y1="546.259" x2="511" y2="950.058" gradientUnits="userSpaceOnUse">
<stop offset="0.345" stop-color="#228B3E"/>
<stop offset="1" stop-color="#B1B1B1"/>
</linearGradient>
</defs>
</svg>
